<svg width="25" height="22" viewBox="0 0 25 22" fill="none" xmlns="http://www.w3.org/2000/svg">
<path d="M20.8422 7.39922L24.7204 10.9012C25.189 11.3303 25.0552 11.6612 24.4197 11.6612H21.5108V20.8108C21.5108 21.4387 20.9759 22 20.3404 22H15.2918V15.5912C15.2918 14.9633 14.7237 14.4021 14.0882 14.4021H10.9118C10.2763 14.4021 9.70823 14.9633 9.70823 15.5912V22H4.65961C4.02412 22 3.45603 21.4387 3.45603 20.8108V11.6612H0.580271C-0.0552193 11.6612 -0.18895 11.3303 0.279644 10.9012L11.6136 0.727238C12.0822 0.298083 12.8846 0.298083 13.3853 0.727238L15.9594 3.0062V1.18916C15.9594 0.561284 16.5275 0 17.1629 0H19.6707C20.3062 0 20.8411 0.561284 20.8411 1.18916L20.8422 7.39922Z" fill="#EE6112"/>
</svg>
